<svg xmlns="http://www.w3.org/2000/svg" width="34" height="34" viewBox="0 0 34 34">
  <g id="Group_4857" data-name="Group 4857" transform="translate(-1094 -760)">
    <g id="Ellipse_2" data-name="Ellipse 2" transform="translate(1128 760) rotate(90)" fill="#dab188" stroke="#fff" stroke-width="1">
      <circle cx="17" cy="17" r="17" stroke="none"/>
      <circle cx="17" cy="17" r="16.5" fill="none"/>
    </g>
    <path id="Icon_ionic-ios-call" data-name="Icon ionic-ios-call" d="M20.986,17.8a14.267,14.267,0,0,0-2.98-1.994c-.893-.429-1.22-.42-1.853.035-.526.38-.867.734-1.473.6a8.784,8.784,0,0,1-2.958-2.189A8.721,8.721,0,0,1,9.533,11.3c-.128-.61.226-.946.6-1.473.455-.632.469-.96.035-1.853a13.985,13.985,0,0,0-1.994-2.98c-.65-.65-.8-.509-1.154-.38a6.568,6.568,0,0,0-1.057.562A3.188,3.188,0,0,0,4.7,6.513c-.252.544-.544,1.557.942,4.2a23.44,23.44,0,0,0,4.121,5.5h0l0,0,0,0h0a23.532,23.532,0,0,0,5.5,4.121c2.644,1.486,3.657,1.194,4.2.942a3.134,3.134,0,0,0,1.34-1.269,6.567,6.567,0,0,0,.562-1.057C21.494,18.6,21.64,18.452,20.986,17.8Z" transform="translate(1098.564 764.552)" fill="none" stroke="#fff" stroke-width="1"/>
  </g>
</svg>
